<svg width="35" height="35" viewBox="0 0 35 35" fill="none" xmlns="http://www.w3.org/2000/svg">
<rect width="35" height="35" rx="3" fill="#1877F2"/>
<path d="M25.6348 17.5498C25.6348 13.0574 21.9924 9.41504 17.5 9.41504C13.0076 9.41504 9.36523 13.0574 9.36523 17.5498C9.36523 21.6105 12.3402 24.974 16.2283 25.585V19.9006H14.1631V17.5498H16.2283V15.7568C16.2283 13.7182 17.4436 12.5926 19.2996 12.5926C20.1895 12.5926 21.1191 12.752 21.1191 12.752V14.7541H20.0932C19.0838 14.7541 18.7684 15.3816 18.7684 16.0258V17.5531H21.0229L20.6609 19.9039H18.765V25.5883C22.6598 24.974 25.6348 21.6105 25.6348 17.5498Z" fill="white"/>
</svg>
