<svg width="29" height="23" viewBox="0 0 29 23" fill="none" xmlns="http://www.w3.org/2000/svg">
<rect x="0.5" y="0.833374" width="28" height="21.3333" rx="3" fill="white"/>
<g clip-path="url(#clip0_89_1657)">
<path d="M2 3H27V20H2V3Z" fill="white"/>
<path d="M2 3H27V4.30731H2V3ZM2 5.61462H27V6.92193H2V5.61462ZM2 8.22924H27V9.53655H2V8.22924ZM2 10.8439H27V12.1512H2V10.8439ZM2 13.4635H27V14.7708H2V13.4635ZM2 16.0781H27V17.3854H2V16.0781ZM2 18.6927H27V20H2V18.6927Z" fill="#D80027"/>
<path d="M2 3H14.5V12.1512H2V3Z" fill="#2E52B2"/>
<path d="M4.32998 9.90439L4.13504 9.26813L3.92062 9.90439H3.27734L3.79879 10.2871L3.60385 10.9234L4.13504 10.5307L4.65161 10.9234L4.45181 10.2871L4.983 9.90439H4.32998ZM7.07364 9.90439L6.87384 9.26813L6.66916 9.90439H6.02588L6.54732 10.2871L6.35239 10.9234L6.87384 10.5307L7.40015 10.9234L7.20522 10.2871L7.72666 9.90439H7.07364ZM9.82705 9.90439L9.6175 9.26813L9.42257 9.90439H8.76467L9.30074 10.2871L9.09606 10.9234L9.6175 10.5307L10.1536 10.9234L9.94888 10.2871L10.4703 9.90439H9.82705ZM12.5658 9.90439L12.3709 9.26813L12.1662 9.90439H11.5181L12.0444 10.2871L11.8495 10.9234L12.3709 10.5307L12.8972 10.9234L12.6877 10.2871L13.2237 9.90439H12.5658ZM6.87384 6.74299L6.66916 7.37924H6.02588L6.54732 7.77194L6.35239 8.39825L6.87384 8.01053L7.40015 8.39825L7.20522 7.77194L7.72666 7.37924H7.07364L6.87384 6.74299ZM4.13504 6.74299L3.92062 7.37924H3.27734L3.79879 7.77194L3.60385 8.39825L4.13504 8.01053L4.65161 8.39825L4.45181 7.77194L4.983 7.37924H4.32998L4.13504 6.74299ZM9.6175 6.74299L9.42257 7.37924H8.76467L9.30074 7.77194L9.09606 8.39825L9.6175 8.01053L10.1536 8.39825L9.94888 7.77194L10.4703 7.37924H9.82705L9.6175 6.74299ZM12.3709 6.74299L12.1662 7.37924H11.5181L12.0444 7.77194L11.8495 8.39825L12.3709 8.01053L12.8972 8.39825L12.6877 7.77194L13.2237 7.37924H12.5658L12.3709 6.74299ZM4.13504 4.22778L3.92062 4.8541H3.27734L3.79879 5.24679L3.60385 5.87808L4.13504 5.48539L4.65161 5.87808L4.45181 5.24679L4.983 4.8541H4.32998L4.13504 4.22778ZM6.87384 4.22778L6.66916 4.8541H6.02588L6.54732 5.24679L6.35239 5.87808L6.87384 5.48539L7.40015 5.87808L7.20522 5.24679L7.72666 4.8541H7.07364L6.87384 4.22778ZM9.6175 4.22778L9.42257 4.8541H8.76467L9.30074 5.24679L9.09606 5.87808L9.6175 5.48539L10.1536 5.87808L9.94888 5.24679L10.4703 4.8541H9.82705L9.6175 4.22778ZM12.3709 4.22778L12.1662 4.8541H11.5181L12.0444 5.24679L11.8495 5.87808L12.3709 5.48539L12.8972 5.87808L12.6877 5.24679L13.2237 4.8541H12.5658L12.3709 4.22778Z" fill="white"/>
</g>
<defs>
<clipPath id="clip0_89_1657">
<rect width="25" height="17" fill="white" transform="translate(2 3)"/>
</clipPath>
</defs>
</svg>
