<svg width="35" height="35" viewBox="0 0 35 35" fill="none" xmlns="http://www.w3.org/2000/svg">
<rect width="35" height="35" rx="3" fill="#CB2027"/>
<path d="M17.5066 9.35205C13.0109 9.35205 9.36523 12.9978 9.36523 17.4935C9.36523 20.9433 11.5102 23.8917 14.5383 25.0804C14.4652 24.4362 14.4055 23.4468 14.5648 22.7429C14.7109 22.1054 15.5178 18.6954 15.5178 18.6954C15.5178 18.6954 15.2754 18.2073 15.2754 17.4901C15.2754 16.3579 15.9328 15.5146 16.7496 15.5146C17.4469 15.5146 17.7822 16.0358 17.7822 16.6601C17.7822 17.3573 17.3406 18.4032 17.1049 19.3728C16.909 20.1829 17.5133 20.847 18.3102 20.847C19.7578 20.847 20.8701 19.3196 20.8701 17.1216C20.8701 15.1726 19.4689 13.8112 17.4668 13.8112C15.1492 13.8112 13.7879 15.5478 13.7879 17.344C13.7879 18.0413 14.0568 18.7917 14.3922 19.2001C14.4586 19.2798 14.4652 19.3528 14.4453 19.4358C14.3855 19.6915 14.2428 20.246 14.2162 20.3622C14.183 20.5083 14.0967 20.5415 13.9406 20.4685C12.9246 19.987 12.2871 18.5062 12.2871 17.3042C12.2871 14.7376 14.1498 12.3802 17.6693 12.3802C20.4916 12.3802 22.6896 14.389 22.6896 17.0851C22.6896 19.894 20.9199 22.1519 18.4695 22.1519C17.6461 22.1519 16.8691 21.7235 16.6068 21.2122C16.6068 21.2122 16.1984 22.7661 16.0988 23.1479C15.9195 23.8585 15.4215 24.7417 15.0861 25.2862C15.8498 25.522 16.6533 25.6481 17.5 25.6481C21.9957 25.6481 25.6414 22.0024 25.6414 17.5067C25.648 12.9978 22.0023 9.35205 17.5066 9.35205Z" fill="white"/>
</svg>
