<svg width="35" height="35" viewBox="0 0 35 35" fill="none" xmlns="http://www.w3.org/2000/svg">
<rect width="35" height="35" rx="3" fill="#BB0000"/>
<path d="M25.6926 13.4877C25.4851 12.585 24.7468 11.9193 23.8581 11.8202C20.9289 11.4929 14.1116 11.489 11.1468 11.8202C10.2583 11.9193 9.52025 12.585 9.31248 13.4877C8.8947 15.307 8.89805 19.7236 9.30926 21.5118C9.51671 22.4146 10.2547 23.0801 11.1434 23.1795C14.0727 23.5068 20.8899 23.5107 23.8547 23.1795C24.7432 23.0801 25.4816 22.4146 25.6894 21.5118C26.1004 19.7224 26.1056 15.2842 25.6926 13.4877ZM15.8474 19.0064V15.9932C15.8474 15.4575 16.4273 15.1227 16.8912 15.3905L19.5008 16.8972C19.9647 17.165 19.9647 17.8346 19.5008 18.1025L16.8912 19.609C16.4273 19.8769 15.8474 19.5421 15.8474 19.0064Z" fill="white"/>
</svg>
