<svg width="338" height="115" viewBox="0 0 338 115" fill="none" xmlns="http://www.w3.org/2000/svg">
<path d="M310.888 0.755376H26.9145C25.8793 0.755376 24.8566 0.755376 23.8243 0.76105C22.9601 0.766725 22.1027 0.783209 21.2302 0.797083C19.3348 0.819503 17.4438 0.987111 15.5736 1.29845C13.7062 1.61657 11.8972 2.21631 10.2079 3.0774C8.52061 3.94577 6.97893 5.07412 5.63873 6.42153C4.2915 7.76515 3.16848 9.31819 2.31286 11.0209C1.45487 12.7203 0.859938 14.5413 0.54861 16.4211C0.234323 18.2985 0.065202 20.1976 0.0427654 22.1012C0.0165698 22.9711 0.0138035 23.8439 0 24.7139V90.2945C0.0138035 91.1755 0.0165698 92.0289 0.0427654 92.9102C0.0652089 94.8137 0.23433 96.7127 0.54861 98.59C0.859078 100.471 1.45405 102.293 2.31286 103.993C3.1681 105.69 4.29127 107.237 5.63873 108.573C6.97384 109.927 8.51652 111.056 10.2079 111.917C11.8971 112.781 13.7059 113.384 15.5736 113.707C17.4441 114.016 19.3349 114.184 21.2302 114.209C22.1027 114.228 22.9601 114.239 23.8243 114.239C24.8566 114.245 25.8794 114.245 26.9145 114.245H310.888C311.903 114.245 312.933 114.245 313.948 114.239C314.808 114.239 315.69 114.228 316.55 114.209C318.442 114.185 320.329 114.017 322.196 113.707C324.07 113.382 325.885 112.779 327.582 111.917C329.272 111.055 330.813 109.926 332.147 108.573C333.491 107.232 334.617 105.686 335.483 103.993C336.335 102.292 336.924 100.47 337.23 98.59C337.545 96.7124 337.72 94.8139 337.754 92.9102C337.765 92.0289 337.765 91.1755 337.765 90.2945C337.787 89.2637 337.787 88.2386 337.787 87.1911V27.8116C337.787 26.7726 337.787 25.7419 337.765 24.7139C337.765 23.8439 337.765 22.9711 337.754 22.1011C337.72 20.1973 337.545 18.2987 337.23 16.421C336.924 14.5423 336.334 12.7214 335.483 11.0208C333.74 7.60785 330.977 4.82972 327.582 3.07714C325.885 2.21816 324.069 1.61858 322.196 1.2982C320.33 0.985484 318.442 0.817817 316.55 0.796686C315.69 0.78284 314.808 0.766214 313.948 0.760682C312.933 0.755007 311.903 0.755376 310.888 0.755376Z" fill="#A6A6A6"/>
<path d="M23.838 111.762C22.978 111.762 22.1387 111.751 21.2854 111.731C19.5177 111.708 17.7542 111.554 16.0092 111.269C14.3821 110.987 12.8059 110.463 11.3326 109.714C9.87273 108.971 8.54125 107.998 7.38912 106.83C6.22031 105.676 5.24723 104.337 4.50843 102.868C3.76149 101.388 3.24456 99.8026 2.97565 98.1658C2.68525 96.407 2.52814 94.6286 2.50565 92.8459C2.48776 92.2476 2.46433 90.2553 2.46433 90.2553V24.7136C2.46433 24.7136 2.48928 22.7519 2.5058 22.1756C2.52732 20.3957 2.68353 18.6201 2.97305 16.8641C3.24246 15.2228 3.75979 13.6325 4.50713 12.1483C5.24322 10.6795 6.2109 9.34008 7.37266 8.18198C8.53312 7.01287 9.86887 6.03398 11.3312 5.28099C12.8011 4.53447 14.3744 4.01423 15.9982 3.73771C17.7489 3.44991 19.5185 3.29432 21.2923 3.27223L23.8394 3.23759H313.934L316.512 3.27362C318.269 3.29461 320.023 3.44882 321.757 3.73493C323.398 4.01492 324.987 4.53879 326.474 5.2893C329.404 6.80679 331.787 9.20759 333.291 12.1552C334.026 13.6292 334.536 15.2065 334.802 16.8336C335.095 18.604 335.259 20.3936 335.292 22.188C335.301 22.9915 335.301 23.8546 335.301 24.7136C335.323 25.7775 335.323 26.7902 335.323 27.8112V87.1908C335.323 88.2215 335.323 89.2273 335.301 90.2414C335.301 91.164 335.301 92.0092 335.29 92.8791C335.257 94.6416 335.095 96.3992 334.807 98.1379C334.544 99.7866 334.03 101.385 333.283 102.876C332.539 104.33 331.571 105.657 330.416 106.808C329.263 107.982 327.929 108.961 326.466 109.709C324.983 110.463 323.396 110.989 321.757 111.269C320.013 111.555 318.249 111.71 316.481 111.731C315.654 111.751 314.788 111.762 313.948 111.762L310.888 111.767L23.838 111.762Z" fill="black"/>
<path d="M69.9176 58.3515C69.9479 55.9834 70.5737 53.6615 71.7368 51.6018C72.8999 49.5421 74.5624 47.8115 76.5697 46.5712C75.2945 44.7407 73.6123 43.2343 71.6565 42.1716C69.7008 41.1089 67.5255 40.5192 65.3034 40.4493C60.5633 39.9492 55.9679 43.3003 53.5524 43.3003C51.0902 43.3003 47.3711 40.499 43.3663 40.5818C40.7759 40.6659 38.2514 41.423 36.0387 42.7794C33.8259 44.1358 32.0005 46.0451 30.7402 48.3214C25.2809 57.8217 29.3531 71.7838 34.5826 79.4631C37.199 83.2234 40.2569 87.4238 44.2581 87.2749C48.1735 87.1116 49.6358 84.7654 54.362 84.7654C59.0443 84.7654 60.4163 87.2749 64.4987 87.1802C68.7001 87.1116 71.3471 83.4031 73.8718 79.6072C75.7517 76.9278 77.1983 73.9665 78.158 70.833C75.7171 69.7954 73.6341 68.0585 72.1687 65.8389C70.7033 63.6194 69.9204 61.0153 69.9176 58.3515Z" fill="white"/>
<path d="M62.2067 35.3989C64.4975 32.6349 65.6261 29.0821 65.3528 25.4952C61.853 25.8647 58.6202 27.5459 56.2984 30.2039C55.1633 31.5024 54.2939 33.0131 53.7399 34.6495C53.1859 36.2859 52.9583 38.016 53.07 39.741C54.8205 39.7591 56.5523 39.3777 58.1349 38.6256C59.7176 37.8735 61.1098 36.7702 62.2067 35.3989Z" fill="white"/>
<path d="M119.411 77.755H106.049L102.841 87.2781H97.1813L109.837 52.0453H115.717L128.373 87.2781H122.617L119.411 77.755ZM107.433 73.3606H118.024L112.803 57.9055H112.657L107.433 73.3606Z" fill="white"/>
<path d="M155.705 74.4357C155.705 82.4182 151.454 87.5468 145.039 87.5468C143.414 87.6322 141.798 87.256 140.376 86.4612C138.954 85.6664 137.783 84.4851 136.998 83.0526H136.877V95.7759H131.631V61.5905H136.709V65.863H136.805C137.627 64.4374 138.817 63.2623 140.25 62.4626C141.683 61.6629 143.305 61.2687 144.943 61.3218C151.429 61.3218 155.705 66.4753 155.705 74.4357ZM150.313 74.4357C150.313 69.235 147.639 65.8159 143.559 65.8159C139.551 65.8159 136.855 69.3071 136.855 74.4357C136.855 79.6114 139.551 83.0776 143.559 83.0776C147.639 83.0776 150.313 79.6835 150.313 74.4357Z" fill="white"/>
<path d="M183.833 74.4357C183.833 82.4182 179.583 87.5468 173.168 87.5468C171.543 87.6322 169.927 87.256 168.505 86.4612C167.083 85.6664 165.912 84.4851 165.127 83.0526H165.006V95.7759H159.76V61.5905H164.837V65.863H164.934C165.755 64.4374 166.946 63.2623 168.379 62.4626C169.811 61.6629 171.433 61.2687 173.071 61.3218C179.558 61.3218 183.833 66.4754 183.833 74.4357ZM178.441 74.4357C178.441 69.235 175.767 65.8159 171.688 65.8159C167.68 65.8159 164.984 69.3071 164.984 74.4357C164.984 79.6114 167.68 83.0776 171.688 83.0776C175.768 83.0776 178.441 79.6835 178.441 74.4357Z" fill="white"/>
<path d="M202.424 77.4613C202.813 80.9552 206.19 83.2493 210.804 83.2493C215.226 83.2493 218.407 80.9551 218.407 77.8048C218.407 75.07 216.489 73.4326 211.946 72.3104L207.403 71.2104C200.966 69.6477 197.978 66.6221 197.978 61.7123C197.978 55.6333 203.248 51.4578 210.733 51.4578C218.14 51.4578 223.218 55.6333 223.388 61.7123H218.093C217.776 58.1962 214.884 56.0739 210.658 56.0739C206.432 56.0739 203.541 58.2212 203.541 61.3466C203.541 63.8375 205.388 65.3032 209.906 66.4252L213.768 67.3784C220.96 69.0879 223.948 71.9917 223.948 77.1452C223.948 83.7368 218.724 87.8652 210.416 87.8652C202.642 87.8652 197.393 83.8338 197.054 77.4611L202.424 77.4613Z" fill="white"/>
<path d="M235.27 55.5115V61.5905H240.129V65.766H235.27V79.9273C235.27 82.1272 236.243 83.1524 238.379 83.1524C238.956 83.1423 239.532 83.1016 240.105 83.0304V87.181C239.144 87.3614 238.168 87.4431 237.191 87.4248C232.017 87.4248 229.999 85.4714 229.999 80.4896V65.766H226.283V61.5905H229.999V55.5115H235.27Z" fill="white"/>
<path d="M242.944 74.4357C242.944 66.3535 247.68 61.2747 255.065 61.2747C262.475 61.2747 267.189 66.3534 267.189 74.4357C267.189 82.5401 262.5 87.5967 255.065 87.5967C247.633 87.5967 242.944 82.5401 242.944 74.4357ZM261.844 74.4357C261.844 68.8915 259.316 65.6192 255.065 65.6192C250.814 65.6192 248.289 68.9164 248.289 74.4357C248.289 80.0021 250.814 83.2494 255.065 83.2494C259.316 83.2494 261.844 80.0021 261.844 74.4357Z" fill="white"/>
<path d="M271.514 61.5905H276.517V65.9627H276.638C276.977 64.5972 277.773 63.3904 278.892 62.5453C280.012 61.7001 281.387 61.268 282.786 61.3217C283.39 61.3196 283.993 61.3856 284.583 61.5185V66.4504C283.82 66.216 283.024 66.1084 282.226 66.1318C281.464 66.1007 280.704 66.2357 279.999 66.5277C279.294 66.8196 278.66 67.2614 278.14 67.8229C277.621 68.3843 277.229 69.0521 276.99 69.7803C276.752 70.5086 276.673 71.28 276.76 72.0417V87.278H271.514V61.5905Z" fill="white"/>
<path d="M308.77 79.7333C308.064 84.3965 303.546 87.5966 297.765 87.5966C290.331 87.5966 285.716 82.5899 285.716 74.5576C285.716 66.5003 290.355 61.2747 297.545 61.2747C304.615 61.2747 309.062 66.1567 309.062 73.9452V75.7518H291.012V76.0704C290.928 77.0158 291.046 77.9681 291.357 78.8642C291.668 79.7604 292.165 80.5797 292.815 81.2679C293.466 81.956 294.254 82.4973 295.128 82.8556C296.003 83.214 296.943 83.3813 297.887 83.3463C299.126 83.4631 300.37 83.1745 301.434 82.5235C302.497 81.8726 303.323 80.894 303.789 79.7333L308.77 79.7333ZM291.036 72.0667H303.813C303.86 71.2167 303.732 70.366 303.437 69.5682C303.141 68.7703 302.685 68.0425 302.096 67.4303C301.508 66.8181 300.799 66.3348 300.016 66.0108C299.233 65.6867 298.392 65.5289 297.545 65.5471C296.69 65.542 295.844 65.707 295.053 66.0325C294.263 66.3581 293.544 66.8378 292.939 67.4439C292.334 68.05 291.854 68.7706 291.528 69.564C291.201 70.3575 291.034 71.208 291.036 72.0667Z" fill="white"/>
<path d="M106.776 25.5275C107.875 25.4482 108.979 25.6152 110.007 26.0165C111.035 26.4177 111.961 27.0433 112.719 27.848C113.477 28.6527 114.048 29.6165 114.391 30.6699C114.734 31.7233 114.84 32.84 114.701 33.9394C114.701 39.3479 111.793 42.4568 106.776 42.4568H100.692V25.5275H106.776ZM103.308 40.0626H106.483C107.269 40.1099 108.056 39.9804 108.786 39.6835C109.515 39.3867 110.17 38.9301 110.702 38.3468C111.234 37.7636 111.63 37.0685 111.861 36.312C112.092 35.5555 112.153 34.7568 112.038 33.9739C112.144 33.1942 112.078 32.4004 111.843 31.6495C111.609 30.8986 111.212 30.2091 110.681 29.6305C110.15 29.0519 109.498 28.5985 108.773 28.3028C108.047 28.007 107.265 27.8763 106.483 27.9199H103.308V40.0626Z" fill="white"/>
<path d="M117.656 36.0631C117.576 35.2235 117.672 34.3764 117.937 33.5761C118.202 32.7758 118.63 32.04 119.194 31.4159C119.759 30.7917 120.447 30.293 121.214 29.9518C121.981 29.6105 122.811 29.4343 123.65 29.4343C124.49 29.4343 125.319 29.6105 126.087 29.9518C126.854 30.293 127.542 30.7917 128.106 31.4159C128.671 32.04 129.099 32.7758 129.364 33.5761C129.629 34.3764 129.725 35.2235 129.645 36.0631C129.726 36.9036 129.632 37.7519 129.368 38.5534C129.103 39.355 128.675 40.0922 128.111 40.7176C127.546 41.3429 126.858 41.8427 126.09 42.1846C125.321 42.5266 124.491 42.7033 123.65 42.7033C122.81 42.7033 121.979 42.5266 121.211 42.1846C120.443 41.8427 119.755 41.3429 119.19 40.7176C118.626 40.0922 118.197 39.355 117.933 38.5534C117.669 37.7519 117.575 36.9036 117.656 36.0631ZM127.064 36.0631C127.064 33.2938 125.827 31.6743 123.655 31.6743C121.474 31.6743 120.247 33.2938 120.247 36.0631C120.247 38.8547 121.474 40.4617 123.655 40.4617C125.827 40.4617 127.064 38.8435 127.064 36.0631Z" fill="white"/>
<path d="M145.581 42.4566H142.979L140.352 33.0471H140.153L137.537 42.4566H134.96L131.456 29.6807H134L136.277 39.4294H136.465L139.078 29.6807H141.484L144.098 39.4294H144.296L146.562 29.6807H149.071L145.581 42.4566Z" fill="white"/>
<path d="M152.018 29.6807H154.432V31.7103H154.62C154.938 30.9813 155.474 30.3703 156.154 29.9622C156.834 29.5542 157.624 29.3696 158.413 29.4341C159.031 29.3873 159.652 29.4811 160.23 29.7083C160.808 29.9356 161.327 30.2905 161.749 30.7469C162.172 31.2032 162.487 31.7493 162.671 32.3446C162.855 32.9399 162.903 33.5692 162.813 34.1859V42.4564H160.304V34.819C160.304 32.7659 159.416 31.7449 157.561 31.7449C157.141 31.7252 156.722 31.7971 156.332 31.9555C155.943 32.1139 155.592 32.3551 155.303 32.6626C155.015 32.9701 154.796 33.3367 154.662 33.7371C154.528 34.1375 154.482 34.5624 154.526 34.9825V42.4566H152.018L152.018 29.6807Z" fill="white"/>
<path d="M166.81 24.6934H169.318V42.4565H166.81V24.6934Z" fill="white"/>
<path d="M172.805 36.0631C172.725 35.2235 172.821 34.3763 173.086 33.576C173.351 32.7757 173.779 32.0398 174.344 31.4157C174.908 30.7915 175.596 30.2928 176.364 29.9516C177.131 29.6103 177.961 29.434 178.8 29.434C179.64 29.434 180.469 29.6103 181.237 29.9516C182.004 30.2928 182.692 30.7915 183.257 31.4157C183.821 32.0398 184.25 32.7757 184.515 33.576C184.78 34.3763 184.875 35.2235 184.795 36.0631C184.877 36.9036 184.782 37.7519 184.518 38.5535C184.254 39.3551 183.825 40.0922 183.261 40.7176C182.696 41.3429 182.008 41.8426 181.24 42.1846C180.471 42.5266 179.641 42.7032 178.8 42.7032C177.96 42.7032 177.129 42.5266 176.361 42.1846C175.593 41.8426 174.904 41.3429 174.34 40.7176C173.775 40.0922 173.347 39.3551 173.083 38.5535C172.819 37.7519 172.724 36.9036 172.805 36.0631ZM182.214 36.0631C182.214 33.2938 180.976 31.6743 178.804 31.6743C176.623 31.6743 175.397 33.2938 175.397 36.0631C175.397 38.8547 176.623 40.4617 178.804 40.4617C180.976 40.4617 182.214 38.8435 182.214 36.0631Z" fill="white"/>
<path d="M187.436 38.8436C187.436 36.5438 189.14 35.218 192.164 35.0296L195.607 34.8301V33.7274C195.607 32.378 194.719 31.6161 193.005 31.6161C191.604 31.6161 190.634 32.1328 190.355 33.0361H187.927C188.183 30.8417 190.237 29.4341 193.12 29.4341C196.307 29.4341 198.104 31.0287 198.104 33.7274V42.4566H195.69V40.6612H195.491C195.088 41.3052 194.523 41.8302 193.852 42.1826C193.181 42.5351 192.429 42.7022 191.673 42.6671C191.14 42.7229 190.6 42.6657 190.09 42.4991C189.58 42.3326 189.11 42.0604 188.711 41.7002C188.312 41.3399 187.992 40.8996 187.772 40.4076C187.553 39.9156 187.438 39.3828 187.436 38.8436ZM195.607 37.7519V36.6838L192.503 36.8832C190.752 37.001 189.959 37.5995 189.959 38.7258C189.959 39.8756 190.951 40.5448 192.316 40.5448C192.715 40.5854 193.119 40.5449 193.503 40.4254C193.887 40.306 194.243 40.1102 194.55 39.8496C194.857 39.589 195.109 39.269 195.291 38.9087C195.472 38.5483 195.58 38.1549 195.607 37.7519Z" fill="white"/>
<path d="M201.401 36.0631C201.401 32.0262 203.466 29.4688 206.678 29.4688C207.472 29.432 208.26 29.6232 208.951 30.0201C209.641 30.417 210.204 31.0032 210.575 31.7102H210.763V24.6934H213.271V42.4565H210.868V40.438H210.669C210.269 41.1402 209.686 41.7191 208.983 42.112C208.279 42.5049 207.482 42.6969 206.678 42.6671C203.444 42.6672 201.401 40.1098 201.401 36.0631ZM203.993 36.0631C203.993 38.7729 205.263 40.4035 207.389 40.4035C209.503 40.4035 210.81 38.7494 210.81 36.0742C210.81 33.4115 209.489 31.7338 207.389 31.7338C205.277 31.7338 203.993 33.3755 203.993 36.0631Z" fill="white"/>
<path d="M223.65 36.0631C223.57 35.2235 223.666 34.3764 223.931 33.5761C224.196 32.7758 224.624 32.04 225.188 31.4159C225.753 30.7917 226.441 30.293 227.208 29.9518C227.975 29.6105 228.805 29.4343 229.644 29.4343C230.484 29.4343 231.313 29.6105 232.081 29.9518C232.848 30.293 233.536 30.7917 234.101 31.4159C234.665 32.04 235.093 32.7758 235.358 33.5761C235.623 34.3764 235.719 35.2235 235.639 36.0631C235.72 36.9036 235.626 37.7519 235.362 38.5534C235.097 39.355 234.669 40.0922 234.105 40.7176C233.54 41.3429 232.852 41.8427 232.084 42.1846C231.315 42.5266 230.485 42.7033 229.644 42.7033C228.804 42.7033 227.973 42.5266 227.205 42.1846C226.437 41.8427 225.749 41.3429 225.184 40.7176C224.62 40.0922 224.192 39.355 223.927 38.5534C223.663 37.7519 223.569 36.9036 223.65 36.0631ZM233.059 36.0631C233.059 33.2938 231.821 31.6743 229.649 31.6743C227.468 31.6743 226.241 33.2938 226.241 36.0631C226.241 38.8547 227.468 40.4617 229.649 40.4617C231.821 40.4617 233.059 38.8435 233.059 36.0631Z" fill="white"/>
<path d="M239.005 29.6807H241.419V31.7103H241.607C241.925 30.9813 242.461 30.3703 243.141 29.9622C243.821 29.5542 244.611 29.3696 245.4 29.4341C246.018 29.3873 246.639 29.4811 247.217 29.7083C247.795 29.9356 248.314 30.2905 248.736 30.7469C249.159 31.2032 249.474 31.7493 249.658 32.3446C249.842 32.9399 249.89 33.5692 249.8 34.1859V42.4564H247.291V34.819C247.291 32.7659 246.403 31.7449 244.548 31.7449C244.128 31.7252 243.709 31.7971 243.319 31.9555C242.93 32.1139 242.579 32.3551 242.29 32.6626C242.002 32.9701 241.783 33.3367 241.649 33.7371C241.515 34.1375 241.469 34.5624 241.513 34.9825V42.4566H239.005V29.6807Z" fill="white"/>
<path d="M263.974 26.4999V29.7389H266.728V31.8627H263.974V38.4321C263.974 39.7704 264.523 40.3564 265.772 40.3564C266.091 40.3553 266.411 40.3359 266.728 40.2982V42.3984C266.278 42.4794 265.821 42.5225 265.364 42.5272C262.574 42.5272 261.463 41.5408 261.463 39.0777V31.8626H259.445V29.7388H261.463V26.4999H263.974Z" fill="white"/>
<path d="M270.155 24.6934H272.641V31.7338H272.84C273.173 30.9981 273.724 30.3835 274.418 29.974C275.111 29.5644 275.914 29.3798 276.715 29.4452C277.331 29.4115 277.946 29.5148 278.517 29.7476C279.088 29.9803 279.6 30.3369 280.019 30.7918C280.437 31.2467 280.75 31.7888 280.935 32.3793C281.121 32.9698 281.175 33.5943 281.093 34.2081V42.4566H278.582V34.8301C278.582 32.7894 277.636 31.7559 275.864 31.7559C275.433 31.7204 274.999 31.78 274.593 31.9305C274.187 32.081 273.819 32.3189 273.514 32.6274C273.209 32.9359 272.975 33.3076 272.828 33.7166C272.681 34.1255 272.625 34.5618 272.663 34.9949V42.4565H270.155L270.155 24.6934Z" fill="white"/>
<path d="M295.72 39.007C295.379 40.1746 294.64 41.1846 293.634 41.8603C292.627 42.536 291.415 42.8344 290.212 42.7031C289.374 42.7254 288.542 42.5642 287.773 42.2307C287.004 41.8972 286.316 41.3995 285.757 40.7721C285.199 40.1447 284.783 39.4026 284.538 38.5973C284.293 37.7921 284.226 36.9429 284.34 36.1088C284.229 35.2722 284.297 34.4212 284.542 33.6135C284.786 32.8058 285.2 32.0603 285.755 31.4274C286.311 30.7945 286.996 30.289 287.763 29.9451C288.53 29.6012 289.361 29.4269 290.201 29.4341C293.738 29.4341 295.871 31.8628 295.871 35.8746V36.7544H286.896V36.8957C286.856 37.3646 286.915 37.8365 287.068 38.2812C287.221 38.726 287.464 39.1337 287.783 39.4783C288.102 39.8229 288.488 40.0967 288.919 40.2823C289.349 40.4678 289.813 40.561 290.281 40.5558C290.881 40.6282 291.489 40.5196 292.027 40.2438C292.566 39.968 293.01 39.5374 293.305 39.0069L295.72 39.007ZM286.896 34.8897H293.316C293.347 34.4609 293.289 34.0302 293.146 33.6253C293.002 33.2204 292.775 32.8502 292.481 32.5385C292.186 32.2268 291.83 31.9805 291.435 31.8154C291.04 31.6504 290.615 31.5702 290.187 31.5801C289.753 31.5746 289.323 31.6565 288.921 31.8209C288.519 31.9853 288.154 32.2289 287.847 32.5373C287.54 32.8458 287.298 33.2128 287.135 33.6168C286.971 34.0208 286.89 34.4536 286.896 34.8897Z" fill="white"/>
</svg>
