<svg width="13" height="14" viewBox="0 0 13 14" fill="none" xmlns="http://www.w3.org/2000/svg">
<path d="M2.26465 0.500058C2.19784 0.499177 2.13154 0.511449 2.06964 0.536148C2.00775 0.560847 1.95153 0.597473 1.9043 0.643863C1.81055 0.735912 1.75789 0.860747 1.75789 0.990911C1.75789 1.12108 1.81055 1.24591 1.9043 1.33796C1.99806 1.42999 2.12522 1.48169 2.25781 1.48169C2.3904 1.48169 2.51756 1.42999 2.61133 1.33796C2.70507 1.24591 2.75774 1.12108 2.75774 0.990911C2.75774 0.860747 2.70507 0.735912 2.61133 0.643863C2.51926 0.553431 2.39488 0.501838 2.26465 0.500058ZM10.75 0.500058C10.683 0.499048 10.6165 0.511257 10.5545 0.53596C10.4924 0.560663 10.436 0.597357 10.3887 0.643863C10.2949 0.735912 10.2423 0.860747 10.2423 0.990911C10.2423 1.12108 10.2949 1.24591 10.3887 1.33796C10.4824 1.42999 10.6096 1.48169 10.7422 1.48169C10.8748 1.48169 11.0019 1.42999 11.0957 1.33796C11.1894 1.24591 11.2421 1.12108 11.2421 0.990911C11.2421 0.860747 11.1894 0.735912 11.0957 0.643863C11.0039 0.553661 10.8799 0.502086 10.75 0.500058ZM6.5 0.737815C4.0145 0.737815 2 2.71546 2 5.15549C2 7.60976 4 8.59147 5 10.5549H8C9 8.59147 11 7.60976 11 5.15549C11 2.71546 8.9855 0.737815 6.5 0.737815ZM6.5 2.21037V4.66464H8.5L6.5 8.10061V5.64635H4.5L6.5 2.21037ZM0.5 4.66464C0.367392 4.66464 0.240215 4.71636 0.146447 4.80841C0.0526784 4.90046 0 5.02531 0 5.15549C0 5.28568 0.0526784 5.41053 0.146447 5.50258C0.240215 5.59463 0.367392 5.64635 0.5 5.64635C0.632608 5.64635 0.759785 5.59463 0.853553 5.50258C0.947322 5.41053 1 5.28568 1 5.15549C1 5.02531 0.947322 4.90046 0.853553 4.80841C0.759785 4.71636 0.632608 4.66464 0.5 4.66464ZM12.5 4.66464C12.3674 4.66464 12.2402 4.71636 12.1464 4.80841C12.0527 4.90046 12 5.02531 12 5.15549C12 5.28568 12.0527 5.41053 12.1464 5.50258C12.2402 5.59463 12.3674 5.64635 12.5 5.64635C12.6326 5.64635 12.7598 5.59463 12.8536 5.50258C12.9473 5.41053 13 5.28568 13 5.15549C13 5.02531 12.9473 4.90046 12.8536 4.80841C12.7598 4.71636 12.6326 4.66464 12.5 4.66464ZM2.26465 8.82922C2.19768 8.82821 2.13119 8.84042 2.06912 8.86513C2.00705 8.88983 1.95067 8.92652 1.90332 8.97303C1.80958 9.06508 1.75691 9.18991 1.75691 9.32008C1.75691 9.45024 1.80958 9.57508 1.90332 9.66713C1.94977 9.71284 2.00494 9.74911 2.06569 9.77385C2.12643 9.7986 2.19156 9.81134 2.25732 9.81134C2.32309 9.81134 2.38821 9.7986 2.44896 9.77385C2.50971 9.74911 2.56488 9.71284 2.61133 9.66713C2.70507 9.57508 2.75774 9.45024 2.75774 9.32008C2.75774 9.18991 2.70507 9.06508 2.61133 8.97303C2.51926 8.8826 2.39488 8.831 2.26465 8.82922ZM10.749 8.83018C10.6823 8.82918 10.616 8.8413 10.5541 8.86583C10.4922 8.89036 10.436 8.92681 10.3887 8.97303C10.3421 9.01863 10.3052 9.07279 10.28 9.13243C10.2547 9.19206 10.2418 9.25599 10.2418 9.32056C10.2418 9.38512 10.2547 9.44905 10.28 9.50869C10.3052 9.56832 10.3421 9.62249 10.3887 9.66809C10.4824 9.76012 10.6096 9.81182 10.7422 9.81182C10.8748 9.81182 11.0019 9.76012 11.0957 9.66809C11.1423 9.62249 11.1792 9.56832 11.2044 9.50869C11.2296 9.44905 11.2426 9.38512 11.2426 9.32056C11.2426 9.25599 11.2296 9.19206 11.2044 9.13243C11.1792 9.07279 11.1423 9.01863 11.0957 8.97303C11.0035 8.88295 10.8791 8.83171 10.749 8.83018ZM5 11.5366V12.0274C5 12.5698 5.4475 13.0091 6 13.0091C6 13.1393 6.05268 13.2642 6.14645 13.3562C6.24021 13.4483 6.36739 13.5 6.5 13.5C6.63261 13.5 6.75979 13.4483 6.85355 13.3562C6.94732 13.2642 7 13.1393 7 13.0091C7.5525 13.0091 8 12.5698 8 12.0274V11.5366H5Z" fill="#FFC63D"/>
</svg>
