<svg width="183" height="47" viewBox="0 0 183 47" fill="none" xmlns="http://www.w3.org/2000/svg">
<path d="M0 15.5728L28.8445 0L57.8515 15.5728V36.5377H52.631L52.7123 18.2688L28.9257 31.2059L0 15.5728Z" fill="#FFB606"/>
<path d="M10.3799 26.3168L28.9257 36.5377L47.3903 26.3168V36.8596L28.9257 47L10.3799 36.9803V26.3168Z" fill="#FFB606"/>
<path d="M69.4502 8.99358L87.3257 9.03382C87.3257 9.03382 89.2351 9.05394 90.3727 10.3416C91.5711 11.589 92.0383 13.3395 91.9571 14.2046V35.592H87.0819L87.1429 14.3052C87.1429 14.3052 87.1835 13.7217 86.5132 13.7217H69.4705V8.99358H69.4502Z" fill="#FFB606"/>
<path d="M96.2431 8.99358H121.309V13.8425H101.281V20.0394H117.47V24.7675H101.301V30.9443H121.309V35.6926H96.2431V8.99358Z" fill="white"/>
<path d="M129.719 9.0137H147.066C147.066 9.0137 151.393 9.35574 151.88 13.3193V16.1764H147.066V13.762H129.719V20.0796H147.066C147.066 20.0796 151.555 20.3814 151.88 24.3853V31.4071C151.88 31.4071 151.088 35.7128 147.066 35.7128C143.044 35.7128 129.719 35.7128 129.719 35.7128C129.719 35.7128 124.966 35.3707 124.966 31.0047V28.6708H129.719V30.9645H147.066V24.7877H129.719C129.719 24.7877 125.067 24.3048 125.067 20.1802V13.8022C125.067 13.8223 125.656 9.0137 129.719 9.0137Z" fill="white"/>
<path d="M156.106 9.0137H161.021V30.9846H183V35.7128H156.106V9.0137Z" fill="white"/>
</svg>
