<svg width="14" height="14" viewBox="0 0 14 14" fill="none" xmlns="http://www.w3.org/2000/svg">
<path fill-rule="evenodd" clip-rule="evenodd" d="M7 13.7667C10.7371 13.7667 13.7667 10.7371 13.7667 7C13.7667 3.26287 10.7371 0.233333 7 0.233333C3.26287 0.233333 0.233333 3.26287 0.233333 7C0.233333 10.7371 3.26287 13.7667 7 13.7667ZM7 14C10.866 14 14 10.866 14 7C14 3.13401 10.866 0 7 0C3.13401 0 0 3.13401 0 7C0 10.866 3.13401 14 7 14Z" fill="#FFC63D"/>
<path fill-rule="evenodd" clip-rule="evenodd" d="M4.78333 2.33333C5.4921 2.33333 6.06667 2.9079 6.06667 3.61667V10.6167C6.06667 11.3254 5.4921 11.9 4.78333 11.9C4.07457 11.9 3.5 11.3254 3.5 10.6167V3.61667C3.5 2.9079 4.07457 2.33333 4.78333 2.33333ZM9.45 2.33333C10.1588 2.33333 10.7333 2.9079 10.7333 3.61667V10.6167C10.7333 11.3254 10.1588 11.9 9.45 11.9C8.74123 11.9 8.16667 11.3254 8.16667 10.6167V3.61667C8.16667 2.9079 8.74123 2.33333 9.45 2.33333Z" fill="#FFC63D"/>
</svg>
