<svg width="90" height="90" viewBox="0 0 90 90" fill="none" xmlns="http://www.w3.org/2000/svg">
<circle cx="45" cy="45" r="45" fill="url(#paint0_linear_120_792)"/>
<path d="M65.75 40C65.75 39.5858 65.4142 39.25 65 39.25C64.5858 39.25 64.25 39.5858 64.25 40H65.75ZM25.75 40C25.75 39.5858 25.4142 39.25 25 39.25C24.5858 39.25 24.25 39.5858 24.25 40H25.75ZM39.8181 69.2724C39.4163 69.3729 39.1719 69.7801 39.2724 70.1819C39.3729 70.5837 39.7801 70.8281 40.1819 70.7276L39.8181 69.2724ZM41.9683 69.5079L41.7864 68.7803L41.9683 69.5079ZM48.0317 69.5079L48.2136 68.7803L48.0317 69.5079ZM49.8181 70.7276C50.2199 70.8281 50.6271 70.5837 50.7276 70.1819C50.8281 69.7801 50.5837 69.3729 50.1819 69.2724L49.8181 70.7276ZM54.25 30V40H55.75V30H54.25ZM35.75 40V30H34.25V40H35.75ZM45 49.25C39.8914 49.25 35.75 45.1086 35.75 40H34.25C34.25 45.9371 39.0629 50.75 45 50.75V49.25ZM54.25 40C54.25 45.1086 50.1086 49.25 45 49.25V50.75C50.9371 50.75 55.75 45.9371 55.75 40H54.25ZM45 20.75C50.1086 20.75 54.25 24.8914 54.25 30H55.75C55.75 24.0629 50.9371 19.25 45 19.25V20.75ZM45 19.25C39.0629 19.25 34.25 24.0629 34.25 30H35.75C35.75 24.8914 39.8914 20.75 45 20.75V19.25ZM64.25 40C64.25 50.6315 55.6315 59.25 45 59.25V60.75C56.4599 60.75 65.75 51.4599 65.75 40H64.25ZM45 59.25C34.3685 59.25 25.75 50.6315 25.75 40H24.25C24.25 51.4599 33.5401 60.75 45 60.75V59.25ZM44.25 60V67.5H45.75V60H44.25ZM40.1819 70.7276L42.1502 70.2355L41.7864 68.7803L39.8181 69.2724L40.1819 70.7276ZM47.8498 70.2355L49.8181 70.7276L50.1819 69.2724L48.2136 68.7803L47.8498 70.2355ZM42.1502 70.2355C43.0857 70.0016 44.0429 69.8847 45 69.8847V68.3847C43.9207 68.3847 42.8414 68.5166 41.7864 68.7803L42.1502 70.2355ZM45 69.8847C45.9571 69.8847 46.9143 70.0016 47.8498 70.2355L48.2136 68.7803C47.1586 68.5166 46.0793 68.3847 45 68.3847V69.8847ZM44.25 67.5V69.1347H45.75V67.5H44.25Z" fill="#F4F7F9"/>
<defs>
<linearGradient id="paint0_linear_120_792" x1="69" y1="7.5" x2="18.5" y2="79.5" gradientUnits="userSpaceOnUse">
<stop stop-color="#01E1FF"/>
<stop offset="1" stop-color="#00BAFF"/>
</linearGradient>
</defs>
</svg>
