<svg width="12" height="12" viewBox="0 0 12 12" fill="none" xmlns="http://www.w3.org/2000/svg">
<path d="M11.2075 10.5602L8.39497 4.28305C8.3616 4.20859 8.3103 4.14596 8.24683 4.1022C8.18336 4.05843 8.11023 4.03525 8.03562 4.03525C7.96101 4.03525 7.88787 4.05843 7.8244 4.1022C7.76093 4.14596 7.70964 4.20859 7.67626 4.28305L6.5859 6.71714C5.73123 6.66351 4.90891 6.33407 4.21883 5.76884C5.02849 4.80398 5.51906 3.55984 5.60954 2.24185H6.83049C6.93705 2.24185 7.03925 2.19461 7.1146 2.11052C7.18995 2.02644 7.23228 1.91239 7.23228 1.79348C7.23228 1.67456 7.18995 1.56052 7.1146 1.47643C7.03925 1.39235 6.93705 1.34511 6.83049 1.34511H4.01793V0.44837C4.01793 0.329455 3.9756 0.21541 3.90025 0.131324C3.8249 0.0472388 3.7227 0 3.61614 0C3.50958 0 3.40738 0.0472388 3.33203 0.131324C3.25668 0.21541 3.21435 0.329455 3.21435 0.44837V1.34511H0.401793C0.295231 1.34511 0.193033 1.39235 0.117683 1.47643C0.0423317 1.56052 0 1.67456 0 1.79348C0 1.91239 0.0423317 2.02644 0.117683 2.11052C0.193033 2.19461 0.295231 2.24185 0.401793 2.24185H4.80294C4.71345 3.34072 4.29545 4.37409 3.61614 5.17587C3.19283 4.67743 2.86777 4.08558 2.66188 3.43843C2.64495 3.38197 2.61812 3.32984 2.58294 3.28507C2.54776 3.24031 2.50494 3.20381 2.45699 3.17771C2.40903 3.15161 2.3569 3.13643 2.30363 3.13305C2.25036 3.12968 2.19703 3.13817 2.14673 3.15805C2.09644 3.17792 2.05019 3.20878 2.0107 3.24881C1.9712 3.28884 1.93925 3.33725 1.9167 3.39121C1.89415 3.44517 1.88146 3.5036 1.87937 3.5631C1.87727 3.62259 1.88582 3.68195 1.9045 3.73772C2.1442 4.49427 2.52179 5.18718 3.01345 5.77276C2.25645 6.39352 1.3412 6.72742 0.401793 6.72554C0.295231 6.72554 0.193033 6.77278 0.117683 6.85687C0.0423317 6.94095 0 7.055 0 7.17391C0 7.29283 0.0423317 7.40687 0.117683 7.49096C0.193033 7.57505 0.295231 7.62228 0.401793 7.62228C1.56729 7.62373 2.69938 7.18788 3.61614 6.38478C4.36427 7.03709 5.25734 7.44995 6.19967 7.57913L4.86371 10.5602C4.81602 10.6666 4.80815 10.7897 4.84182 10.9026C4.87549 11.0154 4.94795 11.1087 5.04326 11.1619C5.13857 11.2151 5.24891 11.2239 5.35002 11.1863C5.45114 11.1487 5.53473 11.0679 5.58242 10.9615L6.27501 9.41576H9.79622L10.4888 10.9615C10.5222 11.036 10.5736 11.0986 10.6371 11.1424C10.7006 11.1862 10.7738 11.2093 10.8484 11.2092C10.9169 11.2092 10.9842 11.1896 11.044 11.1524C11.1038 11.1151 11.1541 11.0615 11.1901 10.9964C11.2261 10.9314 11.2465 10.8572 11.2496 10.7809C11.2527 10.7045 11.2382 10.6286 11.2075 10.5602ZM6.6768 8.51902L8.03587 5.48636L9.39443 8.51902H6.6768Z" fill="#FFC63D"/>
</svg>
