<svg width="14" height="13" viewBox="0 0 14 13" fill="none" xmlns="http://www.w3.org/2000/svg">
<path d="M6.16589 0.00103728C6.00137 0.00155193 5.81944 0.0756608 5.65339 0.241891L2.7224 3.57113H0.5125C0.230112 3.57113 0 3.8022 0 4.08577V8.20293C0 8.4865 0.230112 8.71757 0.5125 8.71757H2.72291L5.6375 12.0309C6.15 12.5455 6.6625 12.282 6.6625 11.5805V0.62736C6.6625 0.220276 6.44059 -0.00153593 6.16589 8.00584e-06V0.00103728ZM9.88151 1.03033C9.77251 1.04942 9.6726 1.10342 9.59669 1.18427C9.52079 1.26511 9.47298 1.36844 9.46041 1.47883C9.44783 1.58922 9.47117 1.70073 9.52694 1.79669C9.5827 1.89266 9.6679 1.96792 9.76979 2.01124C10.5322 2.39616 11.1728 2.98674 11.6197 3.71677C12.0666 4.4468 12.3022 5.28741 12.3 6.14435C12.3 7.95796 11.275 9.51527 9.76927 10.2775C9.70075 10.3014 9.63808 10.3397 9.58539 10.3898C9.5327 10.4398 9.4912 10.5006 9.46363 10.568C9.43606 10.6354 9.42306 10.7079 9.42548 10.7807C9.4279 10.8535 9.44568 10.925 9.47766 10.9904C9.50964 11.0557 9.55507 11.1136 9.61097 11.16C9.66687 11.2065 9.73194 11.2405 9.8019 11.2598C9.87186 11.2791 9.9451 11.2832 10.0168 11.272C10.0885 11.2608 10.1569 11.2344 10.2177 11.1946C12.0591 10.2615 13.325 8.35114 13.325 6.14435C13.325 3.93755 12.0586 2.02719 10.2177 1.09414C10.13 1.04499 10.0298 1.0228 9.92969 1.03033C9.91364 1.02957 9.89756 1.02957 9.88151 1.03033ZM8.66432 3.02406C8.55397 3.0322 8.44921 3.07598 8.36569 3.14886C8.28217 3.22174 8.22438 3.31981 8.20097 3.42841C8.17755 3.537 8.18976 3.65029 8.23578 3.75134C8.28179 3.85239 8.35913 3.93577 8.45625 3.98902C9.24704 4.48256 9.7375 5.26431 9.7375 6.14435C9.7375 7.03057 9.23935 7.8226 8.44036 8.31563C8.37759 8.34852 8.32229 8.3941 8.27794 8.44952C8.23359 8.50493 8.20115 8.56897 8.18267 8.6376C8.16419 8.70623 8.16008 8.77796 8.17058 8.84827C8.18108 8.91857 8.20597 8.98593 8.24369 9.0461C8.28141 9.10626 8.33113 9.15793 8.38972 9.19783C8.44831 9.23774 8.5145 9.26503 8.58412 9.27797C8.65373 9.29091 8.72526 9.28923 8.79419 9.27303C8.86313 9.25683 8.92797 9.22646 8.98464 9.18384C10.0455 8.53024 10.7625 7.41861 10.7625 6.14435C10.7625 4.87781 10.0517 3.76 9.00052 3.10486C8.91465 3.04977 8.81437 3.02164 8.7125 3.02406C8.69645 3.0233 8.68037 3.0233 8.66432 3.02406Z" fill="#FFC63D"/>
</svg>
